/* XPM */
static const char *Character[] = {
/* columns rows colors chars-per-pixel */
"64 64 2 1 ",
"  c #FAE100",
". c None",
/* pixels */
"................................................................",
"................................................................",
"................................................................",
"................................................................",
"................................................................",
"................................................................",
"................................................................",
"................................................................",
"................................................................",
"................................................................",
"................................................................",
"................................................................",
"................................................................",
"..........................              ........................",
"........................                 .......................",
".......................                   ......................",
"......................                    ......................",
".....................                     ......................",
".....................                     ......................",
".....................                     ......................",
".....................                    .......................",
"......................                   .......................",
"......................                   .......................",
".......................                 ........................",
"........................               .........................",
".........................             ..........................",
"...........................         ............................",
"..............................  ................................",
"............................... ................................",
"............................... ................................",
"............................... ................................",
"............................... ................................",
"............................... ................................",
"............................... ................................",
"............................... ................................",
"............................... ................................",
"............................... ................................",
"..............................  ................................",
"..............................  ................................",
".............................   ................................",
"............................ .  ................................",
"..........................  ..  ................................",
".........................  ...  ...... .........................",
".......................  ..... . ....  .........................",
"....................... ...... . ... ...........................",
"...................... ....... ..    ...........................",
"...................... ....... .................................",
"...................... ....... .................................",
"....................... ...... .................................",
"............................. ..................................",
".............................  .................................",
".............................  .................................",
".............................  .................................",
"............................ .  ................................",
"............................ .. ................................",
"........................... ... ................................",
"........................... ...  ...............................",
".......................... ..... ...............................",
"......................... ....... ..............................",
"......................... ......................................",
"................................................................",
"................................................................",
"................................................................",
"................................................................"
};
