/* XPM */
static const char *Collectible[] = {
/* columns rows colors chars-per-pixel */
"64 64 2 1 ",
"  c #CE31D8",
". c None",
/* pixels */
"................................................................",
"................................................................",
"................................................................",
"................................................................",
"................................................................",
"................................................................",
"................................................................",
"................................................................",
"................................................................",
"................................................................",
"................................................................",
"................................................................",
"................................................................",
"................................................................",
"................................................................",
"........................   .....................................",
"......................      ..........     .....................",
".....................        .......        ....................",
"....................         .......        ....................",
"...................           .....          ...................",
"...................           .....           ..................",
"..................            ....            ..................",
"..................            ...             ..................",
"..................            ...              .................",
"..................            ...              .................",
"..................             .               .................",
"..................             .               .................",
"..................             .               .................",
"..................                             .................",
"..................                             .................",
"..................                             .................",
"..................                             .................",
"..................                            ..................",
"..................                            ..................",
"...................                           ..................",
"...................                           ..................",
"....................                         ...................",
"....................                         ...................",
".....................                       ....................",
".....................                       ....................",
"......................                     .....................",
"......................                    ......................",
".......................                   ......................",
".......................                   ......................",
"........................                 .......................",
".........................               ........................",
".........................              .........................",
"..........................             .........................",
"...........................           ..........................",
"............................         ...........................",
".............................        ...........................",
"..............................      ............................",
"...............................   ..............................",
"................................................................",
"................................................................",
"................................................................",
"................................................................",
"................................................................",
"................................................................",
"................................................................",
"................................................................",
"................................................................",
"................................................................",
"................................................................"
};
