/* XPM */
static const char *Exit[] = {
/* columns rows colors chars-per-pixel */
"64 64 2 1 ",
"  c #E20E0E",
". c #31D836",
/* pixels */
"                                                                ",
"                                                                ",
"                                                                ",
"                   .                                            ",
"                ... .                                           ",
"   .....       .    .                                           ",
"  .  .  .     .     .                                           ",
"  .  .  .    ..     .                                           ",
"     .  .   ...      .                                          ",
"     .  .     .      .                                          ",
"     .  .     .      .                                          ",
"     .  .     .      . ........                                 ",
"     .  .     .      .        .                                 ",
"     .  .     .     .         .    .                            ",
"     .   .    .     .        .     .                            ",
"     .   .    .     .        .     .                            ",
"     .   .    .    .         .     .                .           ",
"     .   .    .    .        .     .                 .           ",
"     .   .    .   .         .     .       .         .           ",
"    .    .    .  .         .     .        .         .           ",
"    .    .    . .          .     .        .         .           ",
"    .    .   . .          .      .        .         .           ",
"    .    .   ..           .      .        .         .           ",
"    .    .   .           .       .       .          .           ",
"    .    .   .           .       .       .          .           ",
"    .    .   ..         .        .       .          .           ",
"    .    .   ..         .        .   .   .          .           ",
"    .    .   ..        .         .   .   .          .           ",
"    .   .    . .      .          .   .   .          .           ",
"   .    .    . .      .          .  ..   .          .           ",
"   .    .    . .     .           .  .    .          .           ",
"   .    .    .  .    .           .  .    .          .           ",
"   .    .    .  .   .            .  .    .          .           ",
"   .   .     .   .  .        .   .  .    .          .           ",
"   .   .    .    . .        ..   .  .   .           .           ",
"   .  ..    .     ..     ...     .  .   .           .           ",
"   ....     .     .......        .  .   .           .           ",
"            .                    .  .   .          .            ",
"                                 . ..   .          .            ",
"                                  ...   .          .            ",
"                                  ...   .          .            ",
"                                  ...   .          .            ",
"                                    .  .           .            ",
"                                    .  .           .            ",
"                                    .  .           .            ",
"                                    .  .                        ",
"                                    . .                         ",
"                                    . .                         ",
"                                    . .                         ",
"                                     ..                         ",
"                                                                ",
"               ....                                             ",
"        ....    ...                                             ",
"                                                                ",
"                                                                ",
"                                                                ",
"                  .                                             ",
"          .       .                                             ",
"          .       .                                             ",
"          .      .                                              ",
"          .     ..                                              ",
"           ..   .                                               ",
"             ...                                                ",
"                                                                "
};
